<mxfile host="app.diagrams.net" modified="2022-12-17T15:36:12.101Z" agent="5.0 (Windows NT 10.0; Win64; x64) AppleWebKit/537.36 (KHTML, like Gecko) Chrome/108.0.0.0 Safari/537.36" version="20.7.4" etag="Gqq978FwxrxI_6kH71fs" type="github">
  <diagram id="GVZY7AuQiqxXfrJP_eS6" name="第 1 页">
    <mxGraphModel dx="2046" dy="-770" grid="0" gridSize="10" guides="1" tooltips="1" connect="1" arrows="1" fold="1" page="0" pageScale="1" pageWidth="827" pageHeight="1169" background="#ffffff" math="0" shadow="0">
      <root>
        <mxCell id="0" />
        <mxCell id="1" parent="0" />
        <mxCell id="WznCXAJTclXVe1r9-bJw-1" value="&lt;b&gt;&lt;font style=&quot;font-size: 20px&quot; color=&quot;#ffff66&quot;&gt;&lt;br&gt;&lt;/font&gt;&lt;/b&gt;" style="rounded=1;whiteSpace=wrap;html=1;strokeWidth=2;fillWeight=4;hachureGap=8;hachureAngle=45;fillColor=#b1ddf0;sketch=1;strokeColor=#10739e;fillStyle=solid;" vertex="1" parent="1">
          <mxGeometry x="-193" y="1775" width="612" height="64.5" as="geometry" />
        </mxCell>
        <mxCell id="WznCXAJTclXVe1r9-bJw-2" value="" style="shape=partialRectangle;whiteSpace=wrap;html=1;top=0;bottom=0;fillColor=none;shadow=0;sketch=1;" vertex="1" parent="1">
          <mxGeometry x="-107" y="1779" width="77" height="58" as="geometry" />
        </mxCell>
        <mxCell id="WznCXAJTclXVe1r9-bJw-3" value="" style="shape=partialRectangle;whiteSpace=wrap;html=1;top=0;bottom=0;fillColor=none;sketch=1;" vertex="1" parent="1">
          <mxGeometry x="44" y="1779" width="77" height="58" as="geometry" />
        </mxCell>
        <mxCell id="WznCXAJTclXVe1r9-bJw-4" value="" style="shape=partialRectangle;whiteSpace=wrap;html=1;top=0;bottom=0;fillColor=none;sketch=1;" vertex="1" parent="1">
          <mxGeometry x="192" y="1778" width="77" height="58" as="geometry" />
        </mxCell>
        <mxCell id="WznCXAJTclXVe1r9-bJw-5" value="" style="shape=partialRectangle;whiteSpace=wrap;html=1;top=0;bottom=0;fillColor=none;sketch=1;" vertex="1" parent="1">
          <mxGeometry x="340" y="1778" width="77" height="58" as="geometry" />
        </mxCell>
        <mxCell id="WznCXAJTclXVe1r9-bJw-6" value="&lt;font size=&quot;1&quot; color=&quot;#7ea6e0&quot;&gt;&lt;b style=&quot;font-size: 22px&quot;&gt;变量a&lt;/b&gt;&lt;/font&gt;" style="text;html=1;strokeColor=none;fillColor=none;align=center;verticalAlign=middle;whiteSpace=wrap;rounded=0;shadow=0;sketch=1;" vertex="1" parent="1">
          <mxGeometry x="-180" y="1793" width="60" height="30" as="geometry" />
        </mxCell>
        <mxCell id="WznCXAJTclXVe1r9-bJw-7" value="&lt;font size=&quot;1&quot; color=&quot;#ea6b66&quot;&gt;&lt;b style=&quot;font-size: 22px&quot;&gt;变量b&lt;/b&gt;&lt;/font&gt;" style="text;html=1;strokeColor=none;fillColor=none;align=center;verticalAlign=middle;whiteSpace=wrap;rounded=0;shadow=0;sketch=1;" vertex="1" parent="1">
          <mxGeometry x="129" y="1793" width="60" height="30" as="geometry" />
        </mxCell>
        <mxCell id="WznCXAJTclXVe1r9-bJw-8" value="&lt;b&gt;&lt;font style=&quot;font-size: 20px&quot; color=&quot;#ffff66&quot;&gt;&lt;br&gt;&lt;/font&gt;&lt;/b&gt;" style="rounded=1;whiteSpace=wrap;html=1;strokeWidth=2;fillWeight=4;hachureGap=8;hachureAngle=45;fillColor=#b1ddf0;sketch=1;strokeColor=#10739e;fillStyle=solid;" vertex="1" parent="1">
          <mxGeometry x="-193" y="1861" width="612" height="64.5" as="geometry" />
        </mxCell>
        <mxCell id="WznCXAJTclXVe1r9-bJw-9" value="" style="shape=partialRectangle;whiteSpace=wrap;html=1;top=0;bottom=0;fillColor=none;shadow=0;sketch=1;" vertex="1" parent="1">
          <mxGeometry x="-107" y="1865" width="77" height="58" as="geometry" />
        </mxCell>
        <mxCell id="WznCXAJTclXVe1r9-bJw-10" value="" style="shape=partialRectangle;whiteSpace=wrap;html=1;top=0;bottom=0;fillColor=none;sketch=1;" vertex="1" parent="1">
          <mxGeometry x="44" y="1865" width="77" height="58" as="geometry" />
        </mxCell>
        <mxCell id="WznCXAJTclXVe1r9-bJw-11" value="" style="shape=partialRectangle;whiteSpace=wrap;html=1;top=0;bottom=0;fillColor=none;sketch=1;" vertex="1" parent="1">
          <mxGeometry x="192" y="1864" width="77" height="58" as="geometry" />
        </mxCell>
        <mxCell id="WznCXAJTclXVe1r9-bJw-12" value="" style="shape=partialRectangle;whiteSpace=wrap;html=1;top=0;bottom=0;fillColor=none;sketch=1;" vertex="1" parent="1">
          <mxGeometry x="340" y="1864" width="77" height="58" as="geometry" />
        </mxCell>
        <mxCell id="WznCXAJTclXVe1r9-bJw-13" value="" style="edgeStyle=orthogonalEdgeStyle;orthogonalLoop=1;jettySize=auto;html=1;fontSize=22;fontColor=#7EA6E0;curved=1;strokeColor=#FF0080;" edge="1" parent="1" source="WznCXAJTclXVe1r9-bJw-15" target="WznCXAJTclXVe1r9-bJw-16">
          <mxGeometry relative="1" as="geometry" />
        </mxCell>
        <mxCell id="WznCXAJTclXVe1r9-bJw-14" value="&lt;b&gt;&lt;font style=&quot;font-size: 17px&quot;&gt;内存访问&lt;/font&gt;&lt;/b&gt;" style="edgeLabel;html=1;align=center;verticalAlign=middle;resizable=0;points=[];fontSize=18;fontColor=#4D4D4D;labelBackgroundColor=none;labelBorderColor=none;" vertex="1" connectable="0" parent="WznCXAJTclXVe1r9-bJw-13">
          <mxGeometry x="-0.5762" y="-3" relative="1" as="geometry">
            <mxPoint x="40" y="26" as="offset" />
          </mxGeometry>
        </mxCell>
        <mxCell id="WznCXAJTclXVe1r9-bJw-15" value="P1" style="whiteSpace=wrap;html=1;fontSize=20;strokeWidth=2;fillColor=#66B2FF;sketch=1;fillWeight=-1;hachureGap=8;fillStyle=solid;strokeColor=#0e8088;" vertex="1" parent="1">
          <mxGeometry x="-300" y="1680" width="58" height="58" as="geometry" />
        </mxCell>
        <mxCell id="WznCXAJTclXVe1r9-bJw-16" value="" style="shape=waypoint;sketch=1;size=6;pointerEvents=1;points=[];fillColor=#b0e3e6;resizable=0;rotatable=0;perimeter=centerPerimeter;snapToPoint=1;fontSize=20;strokeColor=#0e8088;strokeWidth=2;fillWeight=-1;hachureGap=8;fillStyle=solid;" vertex="1" parent="1">
          <mxGeometry x="-175" y="1753" width="40" height="40" as="geometry" />
        </mxCell>
        <mxCell id="WznCXAJTclXVe1r9-bJw-17" value="&lt;font size=&quot;1&quot; color=&quot;#ea6b66&quot;&gt;&lt;b style=&quot;font-size: 22px&quot;&gt;变量b&lt;/b&gt;&lt;/font&gt;" style="text;html=1;strokeColor=none;fillColor=none;align=center;verticalAlign=middle;whiteSpace=wrap;rounded=0;shadow=0;sketch=1;" vertex="1" parent="1">
          <mxGeometry x="127" y="1878" width="60" height="30" as="geometry" />
        </mxCell>
        <mxCell id="WznCXAJTclXVe1r9-bJw-18" value="&lt;font size=&quot;1&quot; color=&quot;#7ea6e0&quot;&gt;&lt;b style=&quot;font-size: 22px&quot;&gt;变量a&lt;/b&gt;&lt;/font&gt;" style="text;html=1;strokeColor=none;fillColor=none;align=center;verticalAlign=middle;whiteSpace=wrap;rounded=0;shadow=0;sketch=1;" vertex="1" parent="1">
          <mxGeometry x="-180" y="1879" width="60" height="30" as="geometry" />
        </mxCell>
        <mxCell id="WznCXAJTclXVe1r9-bJw-19" value="" style="rounded=1;whiteSpace=wrap;html=1;shadow=1;sketch=1;fontSize=22;glass=0;fillColor=none;strokeColor=#B20000;fontColor=#ffffff;" vertex="1" parent="1">
          <mxGeometry x="-221.5" y="1723" width="133" height="263" as="geometry" />
        </mxCell>
        <mxCell id="WznCXAJTclXVe1r9-bJw-20" value="&lt;font style=&quot;font-size: 17px&quot; color=&quot;#ff3333&quot;&gt;&lt;b&gt;时序冲突&lt;/b&gt;&lt;/font&gt;" style="text;html=1;strokeColor=none;fillColor=none;align=center;verticalAlign=middle;whiteSpace=wrap;rounded=0;shadow=1;glass=0;sketch=1;fontSize=22;fontColor=#7EA6E0;" vertex="1" parent="1">
          <mxGeometry x="-191.5" y="1944" width="73" height="26" as="geometry" />
        </mxCell>
        <mxCell id="WznCXAJTclXVe1r9-bJw-21" value="" style="rounded=1;whiteSpace=wrap;html=1;shadow=1;sketch=1;fontSize=22;glass=0;fillColor=none;strokeColor=#B20000;fontColor=#ffffff;" vertex="1" parent="1">
          <mxGeometry x="87" y="1726" width="133" height="263" as="geometry" />
        </mxCell>
        <mxCell id="WznCXAJTclXVe1r9-bJw-22" value="&lt;font style=&quot;font-size: 17px&quot; color=&quot;#ff3333&quot;&gt;&lt;b&gt;时序冲突&lt;/b&gt;&lt;/font&gt;" style="text;html=1;strokeColor=none;fillColor=none;align=center;verticalAlign=middle;whiteSpace=wrap;rounded=0;shadow=1;glass=0;sketch=1;fontSize=22;fontColor=#7EA6E0;" vertex="1" parent="1">
          <mxGeometry x="119" y="1944" width="73" height="26" as="geometry" />
        </mxCell>
        <mxCell id="WznCXAJTclXVe1r9-bJw-23" value="" style="edgeStyle=orthogonalEdgeStyle;curved=1;orthogonalLoop=1;jettySize=auto;html=1;fontSize=17;fontColor=#FF3333;strokeColor=#FF0080;entryX=1;entryY=0.75;entryDx=0;entryDy=0;" edge="1" parent="1" source="WznCXAJTclXVe1r9-bJw-24" target="WznCXAJTclXVe1r9-bJw-17">
          <mxGeometry relative="1" as="geometry" />
        </mxCell>
        <mxCell id="WznCXAJTclXVe1r9-bJw-24" value="P2" style="whiteSpace=wrap;html=1;fontSize=20;strokeWidth=2;fillColor=#FF9999;sketch=1;fillWeight=-1;hachureGap=8;fillStyle=solid;strokeColor=#0e8088;" vertex="1" parent="1">
          <mxGeometry x="349.5" y="1955" width="58" height="58" as="geometry" />
        </mxCell>
        <mxCell id="WznCXAJTclXVe1r9-bJw-25" value="&lt;font style=&quot;font-size: 19px&quot; color=&quot;#006600&quot;&gt;&lt;b&gt;t1&lt;/b&gt;&lt;/font&gt;" style="text;html=1;strokeColor=none;fillColor=none;align=center;verticalAlign=middle;whiteSpace=wrap;rounded=0;shadow=1;glass=0;sketch=1;fontSize=17;fontColor=#FF3333;strokeWidth=5;" vertex="1" parent="1">
          <mxGeometry x="406" y="1796" width="60" height="30" as="geometry" />
        </mxCell>
        <mxCell id="WznCXAJTclXVe1r9-bJw-26" value="&lt;font style=&quot;font-size: 19px&quot; color=&quot;#006600&quot;&gt;&lt;b&gt;t2&lt;/b&gt;&lt;/font&gt;" style="text;html=1;strokeColor=none;fillColor=none;align=center;verticalAlign=middle;whiteSpace=wrap;rounded=0;shadow=1;glass=0;sketch=1;fontSize=17;fontColor=#FF3333;" vertex="1" parent="1">
          <mxGeometry x="406" y="1875" width="60" height="30" as="geometry" />
        </mxCell>
        <mxCell id="WznCXAJTclXVe1r9-bJw-27" value="&lt;b&gt;&lt;font style=&quot;font-size: 20px&quot; color=&quot;#ffff66&quot;&gt;&lt;br&gt;&lt;/font&gt;&lt;/b&gt;" style="rounded=1;whiteSpace=wrap;html=1;strokeWidth=2;fillWeight=4;hachureGap=8;hachureAngle=45;fillColor=#b1ddf0;sketch=1;strokeColor=#10739e;fillStyle=solid;" vertex="1" parent="1">
          <mxGeometry x="656" y="1822" width="612" height="64.5" as="geometry" />
        </mxCell>
        <mxCell id="WznCXAJTclXVe1r9-bJw-28" value="" style="shape=partialRectangle;whiteSpace=wrap;html=1;top=0;bottom=0;fillColor=none;shadow=0;sketch=1;" vertex="1" parent="1">
          <mxGeometry x="742" y="1826" width="77" height="58" as="geometry" />
        </mxCell>
        <mxCell id="WznCXAJTclXVe1r9-bJw-29" value="" style="shape=partialRectangle;whiteSpace=wrap;html=1;top=0;bottom=0;fillColor=none;sketch=1;" vertex="1" parent="1">
          <mxGeometry x="893" y="1826" width="77" height="58" as="geometry" />
        </mxCell>
        <mxCell id="WznCXAJTclXVe1r9-bJw-30" value="" style="shape=partialRectangle;whiteSpace=wrap;html=1;top=0;bottom=0;fillColor=none;sketch=1;" vertex="1" parent="1">
          <mxGeometry x="1041" y="1825" width="77" height="58" as="geometry" />
        </mxCell>
        <mxCell id="WznCXAJTclXVe1r9-bJw-31" value="" style="shape=partialRectangle;whiteSpace=wrap;html=1;top=0;bottom=0;fillColor=none;sketch=1;" vertex="1" parent="1">
          <mxGeometry x="1189" y="1825" width="77" height="58" as="geometry" />
        </mxCell>
        <mxCell id="WznCXAJTclXVe1r9-bJw-32" value="&lt;font size=&quot;1&quot; color=&quot;#7ea6e0&quot;&gt;&lt;b style=&quot;font-size: 22px&quot;&gt;变量a&lt;/b&gt;&lt;/font&gt;" style="text;html=1;strokeColor=none;fillColor=none;align=center;verticalAlign=middle;whiteSpace=wrap;rounded=0;shadow=0;sketch=1;" vertex="1" parent="1">
          <mxGeometry x="669" y="1840" width="60" height="30" as="geometry" />
        </mxCell>
        <mxCell id="WznCXAJTclXVe1r9-bJw-33" value="&lt;font size=&quot;1&quot; color=&quot;#4d4d4d&quot;&gt;&lt;b style=&quot;font-size: 18px&quot;&gt;。。。&lt;/b&gt;&lt;/font&gt;" style="text;html=1;strokeColor=none;fillColor=none;align=center;verticalAlign=middle;whiteSpace=wrap;rounded=0;shadow=0;sketch=1;" vertex="1" parent="1">
          <mxGeometry x="981" y="1839" width="60" height="30" as="geometry" />
        </mxCell>
        <mxCell id="WznCXAJTclXVe1r9-bJw-34" value="&lt;b&gt;&lt;font style=&quot;font-size: 20px&quot; color=&quot;#ffff66&quot;&gt;&lt;br&gt;&lt;/font&gt;&lt;/b&gt;" style="rounded=1;whiteSpace=wrap;html=1;strokeWidth=2;fillWeight=4;hachureGap=8;hachureAngle=45;fillColor=#b1ddf0;sketch=1;strokeColor=#10739e;fillStyle=solid;" vertex="1" parent="1">
          <mxGeometry x="656" y="1908" width="612" height="64.5" as="geometry" />
        </mxCell>
        <mxCell id="WznCXAJTclXVe1r9-bJw-35" value="" style="shape=partialRectangle;whiteSpace=wrap;html=1;top=0;bottom=0;fillColor=none;shadow=0;sketch=1;" vertex="1" parent="1">
          <mxGeometry x="742" y="1912" width="77" height="58" as="geometry" />
        </mxCell>
        <mxCell id="WznCXAJTclXVe1r9-bJw-36" value="" style="shape=partialRectangle;whiteSpace=wrap;html=1;top=0;bottom=0;fillColor=none;sketch=1;" vertex="1" parent="1">
          <mxGeometry x="893" y="1912" width="77" height="58" as="geometry" />
        </mxCell>
        <mxCell id="WznCXAJTclXVe1r9-bJw-37" value="" style="shape=partialRectangle;whiteSpace=wrap;html=1;top=0;bottom=0;fillColor=none;sketch=1;" vertex="1" parent="1">
          <mxGeometry x="1041" y="1911" width="77" height="58" as="geometry" />
        </mxCell>
        <mxCell id="WznCXAJTclXVe1r9-bJw-38" value="" style="shape=partialRectangle;whiteSpace=wrap;html=1;top=0;bottom=0;fillColor=none;sketch=1;" vertex="1" parent="1">
          <mxGeometry x="1189" y="1911" width="77" height="58" as="geometry" />
        </mxCell>
        <mxCell id="WznCXAJTclXVe1r9-bJw-39" value="" style="edgeStyle=orthogonalEdgeStyle;orthogonalLoop=1;jettySize=auto;html=1;fontSize=22;fontColor=#7EA6E0;curved=1;strokeColor=#FF0080;" edge="1" parent="1" source="WznCXAJTclXVe1r9-bJw-41" target="WznCXAJTclXVe1r9-bJw-42">
          <mxGeometry relative="1" as="geometry" />
        </mxCell>
        <mxCell id="WznCXAJTclXVe1r9-bJw-40" value="&lt;b&gt;内存访问&lt;/b&gt;" style="edgeLabel;html=1;align=center;verticalAlign=middle;resizable=0;points=[];fontSize=17;fontColor=#4D4D4D;labelBackgroundColor=none;" vertex="1" connectable="0" parent="WznCXAJTclXVe1r9-bJw-39">
          <mxGeometry x="-0.351" y="-11" relative="1" as="geometry">
            <mxPoint x="12" y="11" as="offset" />
          </mxGeometry>
        </mxCell>
        <mxCell id="WznCXAJTclXVe1r9-bJw-41" value="P1" style="whiteSpace=wrap;html=1;fontSize=20;strokeWidth=2;fillColor=#66B2FF;sketch=1;fillWeight=-1;hachureGap=8;fillStyle=solid;strokeColor=#0e8088;" vertex="1" parent="1">
          <mxGeometry x="560" y="1726" width="58" height="58" as="geometry" />
        </mxCell>
        <mxCell id="WznCXAJTclXVe1r9-bJw-42" value="" style="shape=waypoint;sketch=1;size=6;pointerEvents=1;points=[];fillColor=#b0e3e6;resizable=0;rotatable=0;perimeter=centerPerimeter;snapToPoint=1;fontSize=20;strokeColor=#0e8088;strokeWidth=2;fillWeight=-1;hachureGap=8;fillStyle=solid;" vertex="1" parent="1">
          <mxGeometry x="674" y="1800" width="40" height="40" as="geometry" />
        </mxCell>
        <mxCell id="WznCXAJTclXVe1r9-bJw-43" value="&lt;font size=&quot;1&quot; color=&quot;#ea6b66&quot;&gt;&lt;b style=&quot;font-size: 22px&quot;&gt;变量b&lt;/b&gt;&lt;/font&gt;" style="text;html=1;strokeColor=none;fillColor=none;align=center;verticalAlign=middle;whiteSpace=wrap;rounded=0;shadow=0;sketch=1;" vertex="1" parent="1">
          <mxGeometry x="668" y="1925" width="60" height="30" as="geometry" />
        </mxCell>
        <mxCell id="WznCXAJTclXVe1r9-bJw-44" value="" style="edgeStyle=orthogonalEdgeStyle;curved=1;orthogonalLoop=1;jettySize=auto;html=1;fontSize=17;fontColor=#FF3333;strokeColor=#FF0080;entryX=1;entryY=0.75;entryDx=0;entryDy=0;" edge="1" parent="1" source="WznCXAJTclXVe1r9-bJw-45" target="WznCXAJTclXVe1r9-bJw-43">
          <mxGeometry relative="1" as="geometry">
            <Array as="points">
              <mxPoint x="748" y="2038" />
              <mxPoint x="748" y="1965" />
              <mxPoint x="728" y="1965" />
            </Array>
          </mxGeometry>
        </mxCell>
        <mxCell id="WznCXAJTclXVe1r9-bJw-45" value="P2" style="whiteSpace=wrap;html=1;fontSize=20;strokeWidth=2;fillColor=#FF9999;sketch=1;fillWeight=-1;hachureGap=8;fillStyle=solid;strokeColor=#0e8088;" vertex="1" parent="1">
          <mxGeometry x="564.5" y="1970" width="58" height="58" as="geometry" />
        </mxCell>
        <mxCell id="WznCXAJTclXVe1r9-bJw-46" value="&lt;font style=&quot;font-size: 19px&quot; color=&quot;#006600&quot;&gt;&lt;b&gt;t1&lt;/b&gt;&lt;/font&gt;" style="text;html=1;strokeColor=none;fillColor=none;align=center;verticalAlign=middle;whiteSpace=wrap;rounded=0;shadow=1;glass=0;sketch=1;fontSize=17;fontColor=#FF3333;strokeWidth=5;" vertex="1" parent="1">
          <mxGeometry x="1255" y="1843" width="60" height="30" as="geometry" />
        </mxCell>
        <mxCell id="WznCXAJTclXVe1r9-bJw-47" value="&lt;font style=&quot;font-size: 19px&quot; color=&quot;#006600&quot;&gt;&lt;b&gt;t2&lt;/b&gt;&lt;/font&gt;" style="text;html=1;strokeColor=none;fillColor=none;align=center;verticalAlign=middle;whiteSpace=wrap;rounded=0;shadow=1;glass=0;sketch=1;fontSize=17;fontColor=#FF3333;" vertex="1" parent="1">
          <mxGeometry x="1255" y="1922" width="60" height="30" as="geometry" />
        </mxCell>
        <mxCell id="WznCXAJTclXVe1r9-bJw-48" value="&lt;font size=&quot;1&quot; color=&quot;#4d4d4d&quot;&gt;&lt;b style=&quot;font-size: 18px&quot;&gt;。。。&lt;/b&gt;&lt;/font&gt;" style="text;html=1;strokeColor=none;fillColor=none;align=center;verticalAlign=middle;whiteSpace=wrap;rounded=0;shadow=0;sketch=1;" vertex="1" parent="1">
          <mxGeometry x="908" y="1839" width="60" height="30" as="geometry" />
        </mxCell>
        <mxCell id="WznCXAJTclXVe1r9-bJw-49" value="&lt;font size=&quot;1&quot; color=&quot;#4d4d4d&quot;&gt;&lt;b style=&quot;font-size: 18px&quot;&gt;填充位&lt;/b&gt;&lt;/font&gt;" style="text;html=1;strokeColor=none;fillColor=none;align=center;verticalAlign=middle;whiteSpace=wrap;rounded=0;shadow=0;sketch=1;" vertex="1" parent="1">
          <mxGeometry x="825" y="1843" width="60" height="30" as="geometry" />
        </mxCell>
        <mxCell id="WznCXAJTclXVe1r9-bJw-50" value="&lt;font size=&quot;1&quot; color=&quot;#4d4d4d&quot;&gt;&lt;b style=&quot;font-size: 18px&quot;&gt;填充位&lt;/b&gt;&lt;/font&gt;" style="text;html=1;strokeColor=none;fillColor=none;align=center;verticalAlign=middle;whiteSpace=wrap;rounded=0;shadow=0;sketch=1;" vertex="1" parent="1">
          <mxGeometry x="750.5" y="1843" width="60" height="30" as="geometry" />
        </mxCell>
        <mxCell id="WznCXAJTclXVe1r9-bJw-51" value="&lt;font size=&quot;1&quot; color=&quot;#4d4d4d&quot;&gt;&lt;b style=&quot;font-size: 18px&quot;&gt;填充位&lt;/b&gt;&lt;/font&gt;" style="text;html=1;strokeColor=none;fillColor=none;align=center;verticalAlign=middle;whiteSpace=wrap;rounded=0;shadow=0;sketch=1;" vertex="1" parent="1">
          <mxGeometry x="1196" y="1843" width="60" height="30" as="geometry" />
        </mxCell>
        <mxCell id="WznCXAJTclXVe1r9-bJw-52" value="&lt;font size=&quot;1&quot; color=&quot;#4d4d4d&quot;&gt;&lt;b style=&quot;font-size: 18px&quot;&gt;。。。&lt;/b&gt;&lt;/font&gt;" style="text;html=1;strokeColor=none;fillColor=none;align=center;verticalAlign=middle;whiteSpace=wrap;rounded=0;shadow=0;sketch=1;" vertex="1" parent="1">
          <mxGeometry x="1053" y="1840" width="60" height="30" as="geometry" />
        </mxCell>
        <mxCell id="WznCXAJTclXVe1r9-bJw-53" value="&lt;font size=&quot;1&quot; color=&quot;#4d4d4d&quot;&gt;&lt;b style=&quot;font-size: 18px&quot;&gt;。。。&lt;/b&gt;&lt;/font&gt;" style="text;html=1;strokeColor=none;fillColor=none;align=center;verticalAlign=middle;whiteSpace=wrap;rounded=0;shadow=0;sketch=1;" vertex="1" parent="1">
          <mxGeometry x="1131" y="1839" width="60" height="30" as="geometry" />
        </mxCell>
        <mxCell id="WznCXAJTclXVe1r9-bJw-54" value="&lt;font size=&quot;1&quot; color=&quot;#4d4d4d&quot;&gt;&lt;b style=&quot;font-size: 18px&quot;&gt;填充位&lt;/b&gt;&lt;/font&gt;" style="text;html=1;strokeColor=none;fillColor=none;align=center;verticalAlign=middle;whiteSpace=wrap;rounded=0;shadow=0;sketch=1;" vertex="1" parent="1">
          <mxGeometry x="1197.5" y="1926" width="60" height="30" as="geometry" />
        </mxCell>
        <mxCell id="WznCXAJTclXVe1r9-bJw-55" value="&lt;font size=&quot;1&quot; color=&quot;#4d4d4d&quot;&gt;&lt;b style=&quot;font-size: 18px&quot;&gt;。。。&lt;/b&gt;&lt;/font&gt;" style="text;html=1;strokeColor=none;fillColor=none;align=center;verticalAlign=middle;whiteSpace=wrap;rounded=0;shadow=0;sketch=1;" vertex="1" parent="1">
          <mxGeometry x="1131" y="1922" width="60" height="30" as="geometry" />
        </mxCell>
        <mxCell id="WznCXAJTclXVe1r9-bJw-56" value="&lt;font size=&quot;1&quot; color=&quot;#4d4d4d&quot;&gt;&lt;b style=&quot;font-size: 18px&quot;&gt;填充位&lt;/b&gt;&lt;/font&gt;" style="text;html=1;strokeColor=none;fillColor=none;align=center;verticalAlign=middle;whiteSpace=wrap;rounded=0;shadow=0;sketch=1;" vertex="1" parent="1">
          <mxGeometry x="750.5" y="1925.25" width="60" height="30" as="geometry" />
        </mxCell>
        <mxCell id="WznCXAJTclXVe1r9-bJw-57" value="&lt;font size=&quot;1&quot; color=&quot;#4d4d4d&quot;&gt;&lt;b style=&quot;font-size: 18px&quot;&gt;填充位&lt;/b&gt;&lt;/font&gt;" style="text;html=1;strokeColor=none;fillColor=none;align=center;verticalAlign=middle;whiteSpace=wrap;rounded=0;shadow=0;sketch=1;" vertex="1" parent="1">
          <mxGeometry x="825" y="1925.25" width="60" height="30" as="geometry" />
        </mxCell>
        <mxCell id="WznCXAJTclXVe1r9-bJw-58" value="&lt;font size=&quot;1&quot; color=&quot;#4d4d4d&quot;&gt;&lt;b style=&quot;font-size: 18px&quot;&gt;。。。&lt;/b&gt;&lt;/font&gt;" style="text;html=1;strokeColor=none;fillColor=none;align=center;verticalAlign=middle;whiteSpace=wrap;rounded=0;shadow=0;sketch=1;" vertex="1" parent="1">
          <mxGeometry x="905.5" y="1922.25" width="60" height="30" as="geometry" />
        </mxCell>
        <mxCell id="WznCXAJTclXVe1r9-bJw-59" value="&lt;font size=&quot;1&quot; color=&quot;#4d4d4d&quot;&gt;&lt;b style=&quot;font-size: 18px&quot;&gt;。。。&lt;/b&gt;&lt;/font&gt;" style="text;html=1;strokeColor=none;fillColor=none;align=center;verticalAlign=middle;whiteSpace=wrap;rounded=0;shadow=0;sketch=1;" vertex="1" parent="1">
          <mxGeometry x="978" y="1922.25" width="60" height="30" as="geometry" />
        </mxCell>
        <mxCell id="WznCXAJTclXVe1r9-bJw-60" value="&lt;font size=&quot;1&quot; color=&quot;#4d4d4d&quot;&gt;&lt;b style=&quot;font-size: 18px&quot;&gt;。。。&lt;/b&gt;&lt;/font&gt;" style="text;html=1;strokeColor=none;fillColor=none;align=center;verticalAlign=middle;whiteSpace=wrap;rounded=0;shadow=0;sketch=1;" vertex="1" parent="1">
          <mxGeometry x="1057" y="1922" width="60" height="30" as="geometry" />
        </mxCell>
        <mxCell id="WznCXAJTclXVe1r9-bJw-61" value="" style="endArrow=none;html=1;fontSize=18;fontColor=#4D4D4D;strokeColor=#000000;curved=1;sketch=1;" edge="1" parent="1">
          <mxGeometry width="50" height="50" relative="1" as="geometry">
            <mxPoint x="-238" y="1849" as="sourcePoint" />
            <mxPoint x="467" y="1851" as="targetPoint" />
          </mxGeometry>
        </mxCell>
        <mxCell id="WznCXAJTclXVe1r9-bJw-62" value="" style="endArrow=none;html=1;fontSize=18;fontColor=#4D4D4D;strokeColor=#000000;curved=1;sketch=1;" edge="1" parent="1">
          <mxGeometry width="50" height="50" relative="1" as="geometry">
            <mxPoint x="589" y="1895" as="sourcePoint" />
            <mxPoint x="1320" y="1897" as="targetPoint" />
          </mxGeometry>
        </mxCell>
        <mxCell id="WznCXAJTclXVe1r9-bJw-63" value="" style="shape=flexArrow;endArrow=classic;html=1;fontSize=18;fontColor=#4D4D4D;strokeColor=#00CC00;curved=1;shadow=1;sketch=1;rounded=0;" edge="1" parent="1">
          <mxGeometry width="50" height="50" relative="1" as="geometry">
            <mxPoint x="435.5" y="1827" as="sourcePoint" />
            <mxPoint x="435.5" y="1875" as="targetPoint" />
          </mxGeometry>
        </mxCell>
        <mxCell id="WznCXAJTclXVe1r9-bJw-64" value="" style="shape=flexArrow;endArrow=classic;html=1;fontSize=18;fontColor=#4D4D4D;strokeColor=#00CC00;curved=1;shadow=1;sketch=1;rounded=0;" edge="1" parent="1">
          <mxGeometry width="50" height="50" relative="1" as="geometry">
            <mxPoint x="1284.5" y="1874" as="sourcePoint" />
            <mxPoint x="1284.5" y="1922" as="targetPoint" />
          </mxGeometry>
        </mxCell>
        <mxCell id="WznCXAJTclXVe1r9-bJw-65" value="&lt;b&gt;内存访问&lt;/b&gt;" style="edgeLabel;html=1;align=center;verticalAlign=middle;resizable=0;points=[];fontSize=17;fontColor=#4D4D4D;labelBackgroundColor=none;" vertex="1" connectable="0" parent="1">
          <mxGeometry x="718" y="2018" as="geometry" />
        </mxCell>
        <mxCell id="WznCXAJTclXVe1r9-bJw-66" value="&lt;b&gt;内存访问&lt;/b&gt;" style="edgeLabel;html=1;align=center;verticalAlign=middle;resizable=0;points=[];fontSize=17;fontColor=#4D4D4D;labelBackgroundColor=none;" vertex="1" connectable="0" parent="1">
          <mxGeometry x="269" y="1957" as="geometry" />
        </mxCell>
        <mxCell id="WznCXAJTclXVe1r9-bJw-67" value="" style="rounded=1;whiteSpace=wrap;html=1;shadow=1;glass=0;fontFamily=Comic Sans MS;fontSize=26;fillColor=#EDD100;sketch=1;strokeColor=default;fontColor=#000000;gradientColor=none;fillStyle=solid;strokeWidth=3;opacity=30;" vertex="1" parent="1">
          <mxGeometry x="-258" y="2610" width="818" height="352" as="geometry" />
        </mxCell>
        <mxCell id="WznCXAJTclXVe1r9-bJw-68" value="&lt;div style=&quot;text-align: justify&quot;&gt;&lt;span style=&quot;font-family: &amp;quot;architects daughter&amp;quot;&quot;&gt;&lt;b&gt;&lt;font style=&quot;font-size: 21px;&quot;&gt;Follower A&lt;/font&gt;&lt;/b&gt;&lt;/span&gt;&lt;/div&gt;" style="whiteSpace=wrap;html=1;fontSize=20;strokeWidth=2;fillColor=#35B1F0;sketch=1;fillWeight=-1;hachureGap=8;fillStyle=solid;strokeColor=#0e8088;rounded=1;shadow=1;" vertex="1" parent="1">
          <mxGeometry x="330.01" y="2637.75" width="125" height="60" as="geometry" />
        </mxCell>
        <mxCell id="WznCXAJTclXVe1r9-bJw-69" value="" style="orthogonalLoop=1;jettySize=auto;html=1;strokeColor=#FF8000;strokeWidth=3;fontFamily=Comic Sans MS;fontSize=16;fontColor=#CC0066;exitX=0.75;exitY=1;exitDx=0;exitDy=0;" edge="1" parent="1" source="WznCXAJTclXVe1r9-bJw-73" target="WznCXAJTclXVe1r9-bJw-76">
          <mxGeometry relative="1" as="geometry">
            <Array as="points">
              <mxPoint x="223.51" y="2887.25" />
            </Array>
          </mxGeometry>
        </mxCell>
        <mxCell id="WznCXAJTclXVe1r9-bJw-70" value="2.1 Copy" style="edgeLabel;html=1;align=center;verticalAlign=middle;resizable=0;points=[];fontSize=21;fontFamily=Comic Sans MS;fontColor=#CC0066;labelBackgroundColor=none;" vertex="1" connectable="0" parent="WznCXAJTclXVe1r9-bJw-69">
          <mxGeometry x="-0.3691" y="3" relative="1" as="geometry">
            <mxPoint x="43" y="9" as="offset" />
          </mxGeometry>
        </mxCell>
        <mxCell id="WznCXAJTclXVe1r9-bJw-71" value="" style="orthogonalLoop=1;jettySize=auto;html=1;strokeColor=#FF8000;strokeWidth=3;fontFamily=Comic Sans MS;fontSize=16;fontColor=#CC0066;elbow=vertical;dashed=1;edgeStyle=orthogonalEdgeStyle;curved=1;entryX=1;entryY=0;entryDx=0;entryDy=0;" edge="1" parent="1" source="WznCXAJTclXVe1r9-bJw-73" target="WznCXAJTclXVe1r9-bJw-79">
          <mxGeometry relative="1" as="geometry">
            <mxPoint x="119.75999999999999" y="2638.625" as="targetPoint" />
            <Array as="points">
              <mxPoint x="50.629999999999995" y="2716.25" />
              <mxPoint x="-34.370000000000005" y="2716.25" />
              <mxPoint x="-34.370000000000005" y="2723.25" />
              <mxPoint x="-56.370000000000005" y="2723.25" />
              <mxPoint x="-56.370000000000005" y="2726.25" />
              <mxPoint x="-87.37" y="2726.25" />
              <mxPoint x="-87.37" y="2733.25" />
            </Array>
          </mxGeometry>
        </mxCell>
        <mxCell id="WznCXAJTclXVe1r9-bJw-72" value="4.1 Ack" style="edgeLabel;html=1;align=center;verticalAlign=middle;resizable=0;points=[];fontSize=22;fontFamily=Comic Sans MS;fontColor=#CC0066;labelBackgroundColor=none;" vertex="1" connectable="0" parent="WznCXAJTclXVe1r9-bJw-71">
          <mxGeometry x="0.1003" relative="1" as="geometry">
            <mxPoint x="2" y="-10" as="offset" />
          </mxGeometry>
        </mxCell>
        <mxCell id="WznCXAJTclXVe1r9-bJw-73" value="&lt;div style=&quot;text-align: justify&quot;&gt;&lt;span style=&quot;font-family: &amp;quot;architects daughter&amp;quot;&quot;&gt;&lt;font size=&quot;1&quot; style=&quot;&quot;&gt;&lt;b style=&quot;font-size: 25px;&quot;&gt;Leader&lt;/b&gt;&lt;/font&gt;&lt;/span&gt;&lt;/div&gt;" style="whiteSpace=wrap;html=1;fontSize=20;strokeWidth=2;fillColor=#FF9999;sketch=1;fillWeight=-1;hachureGap=8;fillStyle=solid;strokeColor=#0e8088;rounded=1;glass=0;shadow=1;" vertex="1" parent="1">
          <mxGeometry x="45.629999999999995" y="2745.25" width="124" height="81.5" as="geometry" />
        </mxCell>
        <mxCell id="WznCXAJTclXVe1r9-bJw-74" value="" style="edgeStyle=none;orthogonalLoop=1;jettySize=auto;html=1;strokeColor=#FF8000;strokeWidth=3;fontFamily=Comic Sans MS;fontSize=16;fontColor=#CC0066;dashed=1;" edge="1" parent="1" source="WznCXAJTclXVe1r9-bJw-76" target="WznCXAJTclXVe1r9-bJw-73">
          <mxGeometry relative="1" as="geometry">
            <mxPoint x="222.51" y="2779.25" as="targetPoint" />
          </mxGeometry>
        </mxCell>
        <mxCell id="WznCXAJTclXVe1r9-bJw-75" value="3.2Ack" style="edgeLabel;html=1;align=center;verticalAlign=middle;resizable=0;points=[];fontSize=21;fontFamily=Comic Sans MS;fontColor=#CC0066;labelBackgroundColor=none;" vertex="1" connectable="0" parent="WznCXAJTclXVe1r9-bJw-74">
          <mxGeometry x="0.1422" y="-3" relative="1" as="geometry">
            <mxPoint x="13" y="-7" as="offset" />
          </mxGeometry>
        </mxCell>
        <mxCell id="WznCXAJTclXVe1r9-bJw-76" value="&lt;div style=&quot;text-align: justify&quot;&gt;&lt;span style=&quot;font-family: &amp;quot;architects daughter&amp;quot;;&quot;&gt;&lt;b&gt;&lt;font style=&quot;font-size: 21px;&quot;&gt;Follower B&lt;/font&gt;&lt;/b&gt;&lt;/span&gt;&lt;br&gt;&lt;/div&gt;" style="whiteSpace=wrap;html=1;fontSize=20;strokeWidth=2;fillColor=#35B1F0;sketch=1;fillWeight=-1;hachureGap=8;fillStyle=solid;strokeColor=#0e8088;rounded=1;shadow=1;" vertex="1" parent="1">
          <mxGeometry x="356.22" y="2854.05" width="130" height="67" as="geometry" />
        </mxCell>
        <mxCell id="WznCXAJTclXVe1r9-bJw-77" value="" style="edgeStyle=orthogonalEdgeStyle;orthogonalLoop=1;jettySize=auto;html=1;strokeColor=#FF8000;strokeWidth=3;fontFamily=Comic Sans MS;fontSize=26;fontColor=#999900;" edge="1" parent="1" source="WznCXAJTclXVe1r9-bJw-79" target="WznCXAJTclXVe1r9-bJw-73">
          <mxGeometry relative="1" as="geometry">
            <mxPoint x="-15.490000000000009" y="2786.25" as="targetPoint" />
            <Array as="points">
              <mxPoint x="28.00999999999999" y="2786.75" />
              <mxPoint x="28.00999999999999" y="2786.75" />
            </Array>
          </mxGeometry>
        </mxCell>
        <mxCell id="WznCXAJTclXVe1r9-bJw-78" value="&lt;font style=&quot;font-size: 20px;&quot;&gt;1.RPC Update&lt;/font&gt;" style="edgeLabel;html=1;align=center;verticalAlign=middle;resizable=0;points=[];fontSize=21;fontFamily=Comic Sans MS;fontColor=#CC0066;labelBackgroundColor=none;" vertex="1" connectable="0" parent="WznCXAJTclXVe1r9-bJw-77">
          <mxGeometry x="-0.2668" y="1" relative="1" as="geometry">
            <mxPoint x="13" y="-11" as="offset" />
          </mxGeometry>
        </mxCell>
        <mxCell id="WznCXAJTclXVe1r9-bJw-79" value="&lt;font color=&quot;#e3e300&quot;&gt;Client&lt;/font&gt;" style="ellipse;whiteSpace=wrap;html=1;aspect=fixed;rounded=1;shadow=1;glass=0;sketch=1;fillStyle=solid;strokeColor=default;strokeWidth=3;fontFamily=Comic Sans MS;fontSize=26;fontColor=#999900;fillColor=#00CC00;gradientColor=none;opacity=30;" vertex="1" parent="1">
          <mxGeometry x="-242.49" y="2711" width="150" height="150" as="geometry" />
        </mxCell>
        <mxCell id="WznCXAJTclXVe1r9-bJw-80" value="" style="orthogonalLoop=1;jettySize=auto;html=1;strokeColor=#FF8000;strokeWidth=3;fontFamily=Comic Sans MS;fontSize=16;fontColor=#CC0066;" edge="1" parent="1" source="WznCXAJTclXVe1r9-bJw-73" target="WznCXAJTclXVe1r9-bJw-68">
          <mxGeometry relative="1" as="geometry">
            <mxPoint x="69.01068027210897" y="2648.75" as="sourcePoint" />
            <mxPoint x="235.40999999999997" y="2696.8726708074537" as="targetPoint" />
            <Array as="points">
              <mxPoint x="139.40999999999997" y="2708.5" />
            </Array>
          </mxGeometry>
        </mxCell>
        <mxCell id="WznCXAJTclXVe1r9-bJw-81" value="2.1 Copy" style="edgeLabel;html=1;align=center;verticalAlign=middle;resizable=0;points=[];fontSize=21;fontFamily=Comic Sans MS;fontColor=#CC0066;labelBackgroundColor=none;" vertex="1" connectable="0" parent="WznCXAJTclXVe1r9-bJw-80">
          <mxGeometry x="-0.3691" y="3" relative="1" as="geometry">
            <mxPoint x="14" y="-13" as="offset" />
          </mxGeometry>
        </mxCell>
        <mxCell id="WznCXAJTclXVe1r9-bJw-82" value="" style="edgeStyle=none;orthogonalLoop=1;jettySize=auto;html=1;strokeColor=#FF8000;strokeWidth=3;fontFamily=Comic Sans MS;fontSize=16;fontColor=#CC0066;dashed=1;" edge="1" parent="1" source="WznCXAJTclXVe1r9-bJw-68" target="WznCXAJTclXVe1r9-bJw-73">
          <mxGeometry relative="1" as="geometry">
            <mxPoint x="342.01" y="2792.0078551532024" as="sourcePoint" />
            <mxPoint x="188.51" y="2750.7467130919213" as="targetPoint" />
          </mxGeometry>
        </mxCell>
        <mxCell id="WznCXAJTclXVe1r9-bJw-83" value="3.1Ack" style="edgeLabel;html=1;align=center;verticalAlign=middle;resizable=0;points=[];fontSize=21;fontFamily=Comic Sans MS;fontColor=#CC0066;labelBackgroundColor=none;" vertex="1" connectable="0" parent="WznCXAJTclXVe1r9-bJw-82">
          <mxGeometry x="0.1422" y="-3" relative="1" as="geometry">
            <mxPoint x="7" y="-10" as="offset" />
          </mxGeometry>
        </mxCell>
        <mxCell id="WznCXAJTclXVe1r9-bJw-84" value="" style="orthogonalLoop=1;jettySize=auto;html=1;strokeColor=#FF8000;strokeWidth=3;fontFamily=Comic Sans MS;fontSize=16;fontColor=#CC0066;" edge="1" parent="1" source="WznCXAJTclXVe1r9-bJw-73" target="WznCXAJTclXVe1r9-bJw-68">
          <mxGeometry relative="1" as="geometry">
            <mxPoint x="184.01" y="2781.5696361355085" as="sourcePoint" />
            <mxPoint x="373.01" y="2721.75" as="targetPoint" />
            <Array as="points">
              <mxPoint x="332.51" y="2777.75" />
            </Array>
          </mxGeometry>
        </mxCell>
        <mxCell id="WznCXAJTclXVe1r9-bJw-85" value="4.2 commit" style="edgeLabel;html=1;align=center;verticalAlign=middle;resizable=0;points=[];fontSize=21;fontFamily=Comic Sans MS;fontColor=#CC0066;labelBackgroundColor=none;" vertex="1" connectable="0" parent="WznCXAJTclXVe1r9-bJw-84">
          <mxGeometry x="-0.3691" y="3" relative="1" as="geometry">
            <mxPoint x="99" y="-39" as="offset" />
          </mxGeometry>
        </mxCell>
        <mxCell id="WznCXAJTclXVe1r9-bJw-86" value="" style="orthogonalLoop=1;jettySize=auto;html=1;strokeColor=#FF8000;strokeWidth=3;fontFamily=Comic Sans MS;fontSize=16;fontColor=#CC0066;" edge="1" parent="1" source="WznCXAJTclXVe1r9-bJw-73" target="WznCXAJTclXVe1r9-bJw-76">
          <mxGeometry relative="1" as="geometry">
            <mxPoint x="180.51" y="2791.6524676850768" as="sourcePoint" />
            <mxPoint x="383.01" y="2731.75" as="targetPoint" />
            <Array as="points">
              <mxPoint x="342.51" y="2787.75" />
            </Array>
          </mxGeometry>
        </mxCell>
        <mxCell id="WznCXAJTclXVe1r9-bJw-87" value="4.2 commit" style="edgeLabel;html=1;align=center;verticalAlign=middle;resizable=0;points=[];fontSize=21;fontFamily=Comic Sans MS;fontColor=#CC0066;labelBackgroundColor=none;" vertex="1" connectable="0" parent="WznCXAJTclXVe1r9-bJw-86">
          <mxGeometry x="-0.3691" y="3" relative="1" as="geometry">
            <mxPoint x="120" y="19" as="offset" />
          </mxGeometry>
        </mxCell>
        <mxCell id="WznCXAJTclXVe1r9-bJw-88" value="" style="endArrow=classic;html=1;rounded=0;shadow=1;sketch=1;fontFamily=Architects Daughter;fontSource=https%3A%2F%2Ffonts.googleapis.com%2Fcss%3Ffamily%3DArchitects%2BDaughter;fontSize=23;fontColor=#3399FF;strokeColor=#FF8000;curved=1;dashed=1;strokeWidth=3;entryX=0.5;entryY=1;entryDx=0;entryDy=0;" edge="1" parent="1" source="WznCXAJTclXVe1r9-bJw-73" target="WznCXAJTclXVe1r9-bJw-73">
          <mxGeometry width="50" height="50" relative="1" as="geometry">
            <mxPoint x="46.347828418230506" y="2838.3" as="sourcePoint" />
            <mxPoint x="106.31203883495152" y="2838.3" as="targetPoint" />
            <Array as="points">
              <mxPoint x="14.129999999999995" y="2892.8" />
              <mxPoint x="28.129999999999995" y="2922.8" />
              <mxPoint x="103.13" y="2936.8" />
              <mxPoint x="143.13" y="2876.8" />
            </Array>
          </mxGeometry>
        </mxCell>
        <mxCell id="WznCXAJTclXVe1r9-bJw-89" value="&lt;span style=&quot;color: rgb(204, 0, 102); font-size: 24px;&quot;&gt;4.1 Commit Log&lt;/span&gt;" style="edgeLabel;html=1;align=center;verticalAlign=middle;resizable=0;points=[];fontSize=24;fontFamily=Comic Sans MS;fontColor=#E3E300;labelBackgroundColor=none;" vertex="1" connectable="0" parent="WznCXAJTclXVe1r9-bJw-88">
          <mxGeometry x="-0.6766" y="7" relative="1" as="geometry">
            <mxPoint x="38" y="15" as="offset" />
          </mxGeometry>
        </mxCell>
        <mxCell id="WznCXAJTclXVe1r9-bJw-90" value="" style="rounded=1;whiteSpace=wrap;html=1;shadow=0;glass=1;labelBackgroundColor=#666666;sketch=1;fillStyle=zigzag;strokeColor=default;strokeWidth=3;fontFamily=Lucida Console;fontSize=17;fontColor=#4D4D4D;fillColor=#D1D1D1;gradientColor=none;opacity=30;perimeterSpacing=1;" vertex="1" parent="1">
          <mxGeometry x="-268.19" y="3090" width="764.88" height="520" as="geometry" />
        </mxCell>
        <mxCell id="WznCXAJTclXVe1r9-bJw-91" value="&lt;div style=&quot;text-align: justify;&quot;&gt;&lt;br&gt;&lt;/div&gt;" style="whiteSpace=wrap;html=1;fontSize=22;strokeWidth=2;fillColor=#FFD966;sketch=1;fillWeight=-1;hachureGap=8;fillStyle=solid;strokeColor=#0e8088;rounded=1;shadow=1;" vertex="1" parent="1">
          <mxGeometry x="59" y="3121" width="194.75" height="161" as="geometry" />
        </mxCell>
        <mxCell id="WznCXAJTclXVe1r9-bJw-92" value="" style="group" vertex="1" connectable="0" parent="1">
          <mxGeometry x="74" y="3124" width="258" height="182" as="geometry" />
        </mxCell>
        <mxCell id="WznCXAJTclXVe1r9-bJw-93" value="&lt;b style=&quot;&quot;&gt;&lt;font color=&quot;#007fff&quot;&gt;Nginx Master&lt;/font&gt;&lt;/b&gt;" style="edgeLabel;html=1;align=center;verticalAlign=middle;resizable=0;points=[];fontSize=21;fontFamily=Comic Sans MS;fontColor=#EA6B66;labelBackgroundColor=none;fontStyle=0" vertex="1" connectable="0" parent="WznCXAJTclXVe1r9-bJw-92">
          <mxGeometry x="96.27319241454282" y="20.818569538651385" as="geometry">
            <mxPoint x="-15" y="5" as="offset" />
          </mxGeometry>
        </mxCell>
        <mxCell id="WznCXAJTclXVe1r9-bJw-94" value="&lt;font style=&quot;font-size: 24px;&quot;&gt;LuaJIT&lt;br&gt;VM&lt;br&gt;&lt;/font&gt;" style="shape=cylinder3;whiteSpace=wrap;html=1;boundedLbl=1;backgroundOutline=1;size=15;rounded=0;shadow=1;glass=0;labelBackgroundColor=none;sketch=1;fillStyle=dashed;strokeColor=default;strokeWidth=3;fontFamily=Comic Sans MS;fontSize=21;fontColor=#1A821A;fillColor=#BDBDBD;gradientColor=none;opacity=30;" vertex="1" parent="WznCXAJTclXVe1r9-bJw-92">
          <mxGeometry x="13" y="59" width="111.93" height="87.17" as="geometry" />
        </mxCell>
        <mxCell id="WznCXAJTclXVe1r9-bJw-95" value="&lt;div style=&quot;text-align: justify;&quot;&gt;&lt;br&gt;&lt;/div&gt;" style="whiteSpace=wrap;html=1;fontSize=22;strokeWidth=2;fillColor=#69B2F2;sketch=1;fillWeight=-1;hachureGap=8;fillStyle=solid;strokeColor=#0e8088;rounded=1;shadow=1;" vertex="1" parent="1">
          <mxGeometry x="-146.25" y="3428" width="181" height="167" as="geometry" />
        </mxCell>
        <mxCell id="WznCXAJTclXVe1r9-bJw-96" value="" style="group" vertex="1" connectable="0" parent="1">
          <mxGeometry x="-132.5" y="3436" width="241" height="183" as="geometry" />
        </mxCell>
        <mxCell id="WznCXAJTclXVe1r9-bJw-97" value="&lt;span style=&quot;color: rgb(0, 0, 0); text-align: justify;&quot;&gt;Nginx Worker&lt;/span&gt;" style="edgeLabel;html=1;align=center;verticalAlign=middle;resizable=0;points=[];fontSize=21;fontFamily=Comic Sans MS;fontColor=#EA6B66;labelBackgroundColor=none;fontStyle=0" vertex="1" connectable="0" parent="WznCXAJTclXVe1r9-bJw-96">
          <mxGeometry x="89.92960996862334" y="20.93295728336925" as="geometry">
            <mxPoint x="-15" y="5" as="offset" />
          </mxGeometry>
        </mxCell>
        <mxCell id="WznCXAJTclXVe1r9-bJw-98" value="&lt;font style=&quot;font-size: 24px;&quot;&gt;LuaJIT&lt;br&gt;VM&lt;br&gt;&lt;/font&gt;" style="shape=cylinder3;whiteSpace=wrap;html=1;boundedLbl=1;backgroundOutline=1;size=15;rounded=0;shadow=1;glass=0;labelBackgroundColor=none;sketch=1;fillStyle=dashed;strokeColor=default;strokeWidth=3;fontFamily=Comic Sans MS;fontSize=21;fontColor=#1A821A;fillColor=#BDBDBD;gradientColor=none;opacity=30;" vertex="1" parent="WznCXAJTclXVe1r9-bJw-96">
          <mxGeometry x="14.75" y="60" width="103.5" height="90" as="geometry" />
        </mxCell>
        <mxCell id="WznCXAJTclXVe1r9-bJw-99" value="&lt;div style=&quot;text-align: justify;&quot;&gt;&lt;br&gt;&lt;/div&gt;" style="whiteSpace=wrap;html=1;fontSize=22;strokeWidth=2;fillColor=#69B2F2;sketch=1;fillWeight=-1;hachureGap=8;fillStyle=solid;strokeColor=#0e8088;rounded=1;shadow=1;" vertex="1" parent="1">
          <mxGeometry x="76.75" y="3429" width="179" height="168" as="geometry" />
        </mxCell>
        <mxCell id="WznCXAJTclXVe1r9-bJw-100" value="" style="group" vertex="1" connectable="0" parent="1">
          <mxGeometry x="132.95" y="3435" width="329.8" height="177" as="geometry" />
        </mxCell>
        <mxCell id="WznCXAJTclXVe1r9-bJw-101" value="&lt;span style=&quot;color: rgb(0, 0, 0); text-align: justify;&quot;&gt;Nginx Worker&lt;/span&gt;" style="edgeLabel;html=1;align=center;verticalAlign=middle;resizable=0;points=[];fontSize=21;fontFamily=Comic Sans MS;fontColor=#EA6B66;labelBackgroundColor=none;fontStyle=0" vertex="1" connectable="0" parent="WznCXAJTclXVe1r9-bJw-100">
          <mxGeometry x="44.19637416780123" y="24.115483274078457" as="geometry">
            <mxPoint x="-15" y="5" as="offset" />
          </mxGeometry>
        </mxCell>
        <mxCell id="WznCXAJTclXVe1r9-bJw-102" value="&lt;font style=&quot;font-size: 24px;&quot;&gt;LuaJIT&lt;br&gt;VM&lt;br&gt;&lt;/font&gt;" style="shape=cylinder3;whiteSpace=wrap;html=1;boundedLbl=1;backgroundOutline=1;size=15;rounded=0;shadow=1;glass=0;labelBackgroundColor=none;sketch=1;fillStyle=dashed;strokeColor=default;strokeWidth=3;fontFamily=Comic Sans MS;fontSize=21;fontColor=#1A821A;fillColor=#BDBDBD;gradientColor=none;opacity=30;" vertex="1" parent="WznCXAJTclXVe1r9-bJw-100">
          <mxGeometry x="-25.784532881738638" y="61.90163934426229" width="96.34292972057578" height="87.04918032786885" as="geometry" />
        </mxCell>
        <mxCell id="WznCXAJTclXVe1r9-bJw-103" value="&lt;div style=&quot;text-align: justify;&quot;&gt;&lt;br&gt;&lt;/div&gt;" style="whiteSpace=wrap;html=1;fontSize=22;strokeWidth=2;fillColor=#69B2F2;sketch=1;fillWeight=-1;hachureGap=8;fillStyle=solid;strokeColor=#0e8088;rounded=1;shadow=1;" vertex="1" parent="WznCXAJTclXVe1r9-bJw-100">
          <mxGeometry x="150.61145921535422" y="-4.836065573770491" width="179.1885407846458" height="164.4262295081967" as="geometry" />
        </mxCell>
        <mxCell id="WznCXAJTclXVe1r9-bJw-104" value="&lt;span style=&quot;color: rgb(0, 0, 0); text-align: justify;&quot;&gt;Nginx Worker&lt;/span&gt;" style="edgeLabel;html=1;align=center;verticalAlign=middle;resizable=0;points=[];fontSize=21;fontFamily=Comic Sans MS;fontColor=#EA6B66;labelBackgroundColor=none;fontStyle=0" vertex="1" connectable="0" parent="WznCXAJTclXVe1r9-bJw-100">
          <mxGeometry x="247.12157879664687" y="23.14827015932365" as="geometry">
            <mxPoint x="-15" y="5" as="offset" />
          </mxGeometry>
        </mxCell>
        <mxCell id="WznCXAJTclXVe1r9-bJw-105" value="&lt;font style=&quot;font-size: 24px;&quot;&gt;LuaJIT&lt;br&gt;VM&lt;br&gt;&lt;/font&gt;" style="shape=cylinder3;whiteSpace=wrap;html=1;boundedLbl=1;backgroundOutline=1;size=15;rounded=0;shadow=1;glass=0;labelBackgroundColor=none;sketch=1;fillStyle=dashed;strokeColor=default;strokeWidth=3;fontFamily=Comic Sans MS;fontSize=21;fontColor=#1A821A;fillColor=#BDBDBD;gradientColor=none;opacity=30;" vertex="1" parent="WznCXAJTclXVe1r9-bJw-100">
          <mxGeometry x="177.14067174710698" y="60.93442622950819" width="96.34292972057578" height="87.04918032786885" as="geometry" />
        </mxCell>
        <mxCell id="WznCXAJTclXVe1r9-bJw-106" value="" style="curved=1;endArrow=classic;html=1;strokeColor=#3399FF;strokeWidth=2;fontFamily=Lucida Console;fontSize=20;fontColor=#1A821A;elbow=vertical;exitX=0.475;exitY=1.012;exitDx=0;exitDy=0;exitPerimeter=0;entryX=0.5;entryY=0;entryDx=0;entryDy=0;" edge="1" parent="1" source="WznCXAJTclXVe1r9-bJw-91" target="WznCXAJTclXVe1r9-bJw-95">
          <mxGeometry width="50" height="50" relative="1" as="geometry">
            <mxPoint x="-104.25" y="3370" as="sourcePoint" />
            <mxPoint x="-142.25" y="3132" as="targetPoint" />
            <Array as="points">
              <mxPoint x="20.75" y="3357" />
            </Array>
          </mxGeometry>
        </mxCell>
        <mxCell id="WznCXAJTclXVe1r9-bJw-107" value="" style="curved=1;endArrow=classic;html=1;strokeColor=#3399FF;strokeWidth=2;fontFamily=Lucida Console;fontSize=20;fontColor=#1A821A;elbow=vertical;exitX=0.471;exitY=1.006;exitDx=0;exitDy=0;exitPerimeter=0;" edge="1" parent="1" source="WznCXAJTclXVe1r9-bJw-91" target="WznCXAJTclXVe1r9-bJw-103">
          <mxGeometry width="50" height="50" relative="1" as="geometry">
            <mxPoint x="548.7450000000001" y="3261.9979999999996" as="sourcePoint" />
            <mxPoint x="330.97" y="3397.9699999999993" as="targetPoint" />
            <Array as="points">
              <mxPoint x="355.75" y="3337" />
            </Array>
          </mxGeometry>
        </mxCell>
        <mxCell id="WznCXAJTclXVe1r9-bJw-108" value="" style="curved=1;endArrow=classic;html=1;strokeColor=#3399FF;strokeWidth=2;fontFamily=Lucida Console;fontSize=20;fontColor=#1A821A;elbow=vertical;entryX=0.5;entryY=0;entryDx=0;entryDy=0;exitX=0.5;exitY=1;exitDx=0;exitDy=0;" edge="1" parent="1" source="WznCXAJTclXVe1r9-bJw-91" target="WznCXAJTclXVe1r9-bJw-99">
          <mxGeometry width="50" height="50" relative="1" as="geometry">
            <mxPoint x="172.75" y="3288" as="sourcePoint" />
            <mxPoint x="359.51813470945547" y="3439" as="targetPoint" />
            <Array as="points" />
          </mxGeometry>
        </mxCell>
        <mxCell id="WznCXAJTclXVe1r9-bJw-109" value="&lt;b style=&quot;&quot;&gt;&lt;font color=&quot;#a37448&quot;&gt;fork&lt;/font&gt;&lt;/b&gt;" style="edgeLabel;html=1;align=center;verticalAlign=middle;resizable=0;points=[];fontSize=21;fontFamily=Comic Sans MS;fontColor=#EA6B66;labelBackgroundColor=none;fontStyle=0" vertex="1" connectable="0" parent="1">
          <mxGeometry x="161.75" y="3344" as="geometry">
            <mxPoint x="-10" y="-1" as="offset" />
          </mxGeometry>
        </mxCell>
        <mxCell id="WznCXAJTclXVe1r9-bJw-110" value="&lt;b style=&quot;&quot;&gt;&lt;font color=&quot;#a37448&quot;&gt;fork&lt;/font&gt;&lt;/b&gt;" style="edgeLabel;html=1;align=center;verticalAlign=middle;resizable=0;points=[];fontSize=21;fontFamily=Comic Sans MS;fontColor=#EA6B66;labelBackgroundColor=none;fontStyle=0" vertex="1" connectable="0" parent="1">
          <mxGeometry x="47.75" y="3344" as="geometry">
            <mxPoint x="-10" y="-1" as="offset" />
          </mxGeometry>
        </mxCell>
        <mxCell id="WznCXAJTclXVe1r9-bJw-111" value="&lt;b style=&quot;&quot;&gt;&lt;font color=&quot;#a37448&quot;&gt;fork&lt;/font&gt;&lt;/b&gt;" style="edgeLabel;html=1;align=center;verticalAlign=middle;resizable=0;points=[];fontSize=21;fontFamily=Comic Sans MS;fontColor=#EA6B66;labelBackgroundColor=none;fontStyle=0" vertex="1" connectable="0" parent="1">
          <mxGeometry x="311.75" y="3335" as="geometry">
            <mxPoint x="-10" y="-1" as="offset" />
          </mxGeometry>
        </mxCell>
        <mxCell id="WznCXAJTclXVe1r9-bJw-112" value="" style="shape=image;html=1;verticalAlign=top;verticalLabelPosition=bottom;labelBackgroundColor=#ffffff;imageAspect=0;aspect=fixed;image=https://pixelpig-1253685321.cos.ap-guangzhou.myqcloud.com/blog/Lua/openresty/bird.png;fontFamily=Comic Sans MS;fontSize=21;fontColor=#FF8000;imageBackground=none;" vertex="1" parent="1">
          <mxGeometry x="-239.13" y="3130" width="136.83" height="126" as="geometry" />
        </mxCell>
        <mxCell id="WznCXAJTclXVe1r9-bJw-113" value="&lt;b style=&quot;font-size: 27px;&quot;&gt;&lt;font color=&quot;#009900&quot; style=&quot;font-size: 27px;&quot;&gt;OpenResty&lt;/font&gt;&lt;/b&gt;" style="edgeLabel;html=1;align=center;verticalAlign=middle;resizable=0;points=[];fontSize=27;fontFamily=Comic Sans MS;fontColor=#EA6B66;labelBackgroundColor=none;fontStyle=0" vertex="1" connectable="0" parent="1">
          <mxGeometry x="-154.3" y="3268" as="geometry">
            <mxPoint x="-15" y="5" as="offset" />
          </mxGeometry>
        </mxCell>
        <mxCell id="WznCXAJTclXVe1r9-bJw-114" value="&lt;b&gt;&lt;font style=&quot;font-size: 22px;&quot;&gt;OpenResty Architecture&lt;/font&gt;&lt;/b&gt;" style="edgeLabel;html=1;align=center;verticalAlign=middle;resizable=0;points=[];fontSize=21;fontFamily=Comic Sans MS;fontColor=#4D4D4D;labelBackgroundColor=none;fontStyle=0" vertex="1" connectable="0" parent="1">
          <mxGeometry x="118.75" y="3628" as="geometry">
            <mxPoint x="-15" y="5" as="offset" />
          </mxGeometry>
        </mxCell>
        <mxCell id="WznCXAJTclXVe1r9-bJw-115" value="" style="rounded=1;whiteSpace=wrap;html=1;shadow=0;glass=1;labelBackgroundColor=#666666;sketch=1;fillStyle=hachure;strokeColor=default;strokeWidth=3;fontFamily=Lucida Console;fontSize=17;fontColor=#4D4D4D;fillColor=#cfcfcf;gradientColor=none;opacity=30;perimeterSpacing=1;" vertex="1" parent="1">
          <mxGeometry x="553" y="3135.5" width="762" height="384" as="geometry" />
        </mxCell>
        <mxCell id="WznCXAJTclXVe1r9-bJw-116" value="&lt;b&gt;&lt;font style=&quot;font-size: 22px;&quot;&gt;OpenResty Lua Event M&lt;/font&gt;&lt;/b&gt;&lt;span style=&quot;font-size: 22px;&quot;&gt;&lt;b&gt;echanism&lt;/b&gt;&lt;/span&gt;" style="edgeLabel;html=1;align=center;verticalAlign=middle;resizable=0;points=[];fontSize=21;fontFamily=Comic Sans MS;fontColor=#4D4D4D;labelBackgroundColor=none;fontStyle=0" vertex="1" connectable="0" parent="1">
          <mxGeometry x="936" y="3534.5" as="geometry">
            <mxPoint x="-16" y="1" as="offset" />
          </mxGeometry>
        </mxCell>
        <mxCell id="WznCXAJTclXVe1r9-bJw-117" value="&lt;div style=&quot;text-align: justify;&quot;&gt;&lt;font color=&quot;#ea6b66&quot; face=&quot;Comic Sans MS&quot; style=&quot;font-size: 24px;&quot;&gt;&lt;b&gt;runtime&lt;/b&gt;&lt;/font&gt;&lt;/div&gt;" style="whiteSpace=wrap;html=1;fontSize=22;strokeWidth=2;fillColor=#FFD966;sketch=1;fillWeight=-1;hachureGap=8;fillStyle=solid;strokeColor=#0e8088;rounded=1;shadow=1;" vertex="1" parent="1">
          <mxGeometry x="582" y="3220.5" width="194.75" height="161" as="geometry" />
        </mxCell>
        <mxCell id="WznCXAJTclXVe1r9-bJw-118" value="&lt;div style=&quot;text-align: justify;&quot;&gt;&lt;br&gt;&lt;/div&gt;" style="whiteSpace=wrap;html=1;fontSize=22;strokeWidth=2;fillColor=#69B2F2;sketch=1;fillWeight=-1;hachureGap=8;fillStyle=solid;strokeColor=#0e8088;rounded=1;shadow=1;" vertex="1" parent="1">
          <mxGeometry x="810.24" y="3200.5" width="208.76" height="294" as="geometry" />
        </mxCell>
        <mxCell id="WznCXAJTclXVe1r9-bJw-119" value="&lt;div style=&quot;text-align: justify;&quot;&gt;&lt;br&gt;&lt;/div&gt;" style="whiteSpace=wrap;html=1;fontSize=22;strokeWidth=2;fillColor=#009900;sketch=1;fillWeight=-1;hachureGap=8;fillStyle=solid;strokeColor=#0e8088;rounded=1;shadow=1;" vertex="1" parent="1">
          <mxGeometry x="1077.6399999999999" y="3186.5" width="208.36" height="313" as="geometry" />
        </mxCell>
        <mxCell id="WznCXAJTclXVe1r9-bJw-120" value="&lt;b style=&quot;&quot;&gt;&lt;font color=&quot;#a37448&quot;&gt;Lua Coutines&lt;/font&gt;&lt;/b&gt;" style="edgeLabel;html=1;align=center;verticalAlign=middle;resizable=0;points=[];fontSize=21;fontFamily=Comic Sans MS;fontColor=#EA6B66;labelBackgroundColor=none;fontStyle=0" vertex="1" connectable="0" parent="1">
          <mxGeometry x="924.5" y="3181.5" as="geometry">
            <mxPoint x="-10" y="-1" as="offset" />
          </mxGeometry>
        </mxCell>
        <mxCell id="WznCXAJTclXVe1r9-bJw-121" value="&lt;span style=&quot;font-size: 22px; text-align: justify;&quot;&gt;&lt;font color=&quot;#009900&quot;&gt;Nginx Event&lt;/font&gt;&lt;/span&gt;" style="edgeLabel;html=1;align=center;verticalAlign=middle;resizable=0;points=[];fontSize=21;fontFamily=Comic Sans MS;fontColor=#EA6B66;labelBackgroundColor=none;fontStyle=0" vertex="1" connectable="0" parent="1">
          <mxGeometry x="1183" y="3164.5" as="geometry">
            <mxPoint x="-10" y="-1" as="offset" />
          </mxGeometry>
        </mxCell>
        <mxCell id="WznCXAJTclXVe1r9-bJw-122" value="&lt;div style=&quot;text-align: justify&quot;&gt;&lt;font face=&quot;Comic Sans MS&quot;&gt;&lt;b&gt;yield&lt;/b&gt;&lt;/font&gt;&lt;/div&gt;" style="whiteSpace=wrap;html=1;fontSize=20;strokeWidth=2;fillColor=#C3ABD0;sketch=1;fillWeight=-1;hachureGap=8;fillStyle=zigzag;strokeColor=#0e8088;" vertex="1" parent="1">
          <mxGeometry x="863.5" y="3257" width="109.5" height="77" as="geometry" />
        </mxCell>
        <mxCell id="WznCXAJTclXVe1r9-bJw-123" value="&lt;div style=&quot;text-align: justify&quot;&gt;&lt;font face=&quot;Comic Sans MS&quot;&gt;&lt;b&gt;resume&lt;/b&gt;&lt;/font&gt;&lt;/div&gt;" style="whiteSpace=wrap;html=1;fontSize=20;strokeWidth=2;fillColor=#EA6B66;sketch=1;fillWeight=-1;hachureGap=8;fillStyle=auto;strokeColor=#0e8088;" vertex="1" parent="1">
          <mxGeometry x="863.5" y="3376.5" width="109.5" height="77" as="geometry" />
        </mxCell>
        <mxCell id="WznCXAJTclXVe1r9-bJw-124" value="&lt;div style=&quot;text-align: justify&quot;&gt;&lt;font face=&quot;Comic Sans MS&quot;&gt;&lt;b&gt;add event&lt;/b&gt;&lt;/font&gt;&lt;/div&gt;" style="whiteSpace=wrap;html=1;fontSize=20;strokeWidth=2;fillColor=#C3ABD0;sketch=1;fillWeight=-1;hachureGap=8;fillStyle=solid;strokeColor=#0e8088;" vertex="1" parent="1">
          <mxGeometry x="1126.88" y="3239.5" width="109.5" height="77" as="geometry" />
        </mxCell>
        <mxCell id="WznCXAJTclXVe1r9-bJw-125" value="&lt;div style=&quot;&quot;&gt;&lt;b style=&quot;&quot;&gt;&lt;font face=&quot;Lucida Console&quot;&gt;new event trigger&lt;/font&gt;&lt;/b&gt;&lt;/div&gt;" style="whiteSpace=wrap;html=1;fontSize=20;strokeWidth=2;fillColor=#A591B0;sketch=1;fillWeight=-1;hachureGap=8;fillStyle=solid;strokeColor=#0e8088;align=center;" vertex="1" parent="1">
          <mxGeometry x="1117" y="3374.5" width="136" height="93" as="geometry" />
        </mxCell>
        <mxCell id="WznCXAJTclXVe1r9-bJw-126" value="" style="curved=1;endArrow=classic;html=1;strokeColor=#3399FF;strokeWidth=5;fontFamily=Lucida Console;fontSize=20;fontColor=#1A821A;elbow=vertical;entryX=0;entryY=0.5;entryDx=0;entryDy=0;exitX=1;exitY=0.5;exitDx=0;exitDy=0;" edge="1" parent="1" source="WznCXAJTclXVe1r9-bJw-122" target="WznCXAJTclXVe1r9-bJw-124">
          <mxGeometry width="50" height="50" relative="1" as="geometry">
            <mxPoint x="1054.125" y="2906.5" as="sourcePoint" />
            <mxPoint x="1064" y="3053.5" as="targetPoint" />
            <Array as="points">
              <mxPoint x="1044" y="3262.5" />
            </Array>
          </mxGeometry>
        </mxCell>
        <mxCell id="WznCXAJTclXVe1r9-bJw-127" value="" style="curved=1;endArrow=classic;html=1;strokeColor=#3399FF;strokeWidth=5;fontFamily=Lucida Console;fontSize=20;fontColor=#1A821A;elbow=vertical;entryX=0.5;entryY=0;entryDx=0;entryDy=0;exitX=0.5;exitY=1;exitDx=0;exitDy=0;" edge="1" parent="1" source="WznCXAJTclXVe1r9-bJw-124" target="WznCXAJTclXVe1r9-bJw-125">
          <mxGeometry width="50" height="50" relative="1" as="geometry">
            <mxPoint x="1347.62" y="3292" as="sourcePoint" />
            <mxPoint x="1501.5" y="3274.5" as="targetPoint" />
            <Array as="points">
              <mxPoint x="1195" y="3341.5" />
            </Array>
          </mxGeometry>
        </mxCell>
        <mxCell id="WznCXAJTclXVe1r9-bJw-128" value="" style="curved=1;endArrow=classic;html=1;strokeColor=#3399FF;strokeWidth=5;fontFamily=Lucida Console;fontSize=20;fontColor=#1A821A;elbow=vertical;entryX=1;entryY=0.5;entryDx=0;entryDy=0;exitX=0;exitY=0.5;exitDx=0;exitDy=0;" edge="1" parent="1" source="WznCXAJTclXVe1r9-bJw-125" target="WznCXAJTclXVe1r9-bJw-123">
          <mxGeometry width="50" height="50" relative="1" as="geometry">
            <mxPoint x="1402.5600000000002" y="3280.5" as="sourcePoint" />
            <mxPoint x="1405.93" y="3338.5" as="targetPoint" />
            <Array as="points">
              <mxPoint x="1053" y="3457.5" />
            </Array>
          </mxGeometry>
        </mxCell>
        <mxCell id="WznCXAJTclXVe1r9-bJw-129" value="" style="curved=1;endArrow=classic;html=1;strokeColor=#3399FF;strokeWidth=4;fontFamily=Lucida Console;fontSize=20;fontColor=#1A821A;elbow=vertical;entryX=0;entryY=0.5;entryDx=0;entryDy=0;exitX=1;exitY=0.5;exitDx=0;exitDy=0;" edge="1" parent="1" source="WznCXAJTclXVe1r9-bJw-117" target="WznCXAJTclXVe1r9-bJw-122">
          <mxGeometry width="50" height="50" relative="1" as="geometry">
            <mxPoint x="1424.13" y="3376.5" as="sourcePoint" />
            <mxPoint x="1427.5" y="3434.5" as="targetPoint" />
            <Array as="points">
              <mxPoint x="808" y="3289.5" />
            </Array>
          </mxGeometry>
        </mxCell>
        <mxCell id="WznCXAJTclXVe1r9-bJw-130" value="" style="curved=1;endArrow=classic;html=1;strokeColor=#3399FF;strokeWidth=5;fontFamily=Lucida Console;fontSize=20;fontColor=#1A821A;elbow=vertical;entryX=0.5;entryY=1;entryDx=0;entryDy=0;exitX=0;exitY=0.5;exitDx=0;exitDy=0;" edge="1" parent="1" source="WznCXAJTclXVe1r9-bJw-123" target="WznCXAJTclXVe1r9-bJw-117">
          <mxGeometry width="50" height="50" relative="1" as="geometry">
            <mxPoint x="750.5" y="3507.5" as="sourcePoint" />
            <mxPoint x="606.5" y="3501.5" as="targetPoint" />
            <Array as="points">
              <mxPoint x="771" y="3495.5" />
            </Array>
          </mxGeometry>
        </mxCell>
      </root>
    </mxGraphModel>
  </diagram>
</mxfile>
